<svg width="26" height="26" viewBox="0 0 26 26" fill="none" xmlns="http://www.w3.org/2000/svg">
<g filter="url(#filter0_d_293_937)">
<path d="M20 16H6V2H20M20 0H6C5.46957 0 4.96086 0.210714 4.58579 0.585786C4.21071 0.960859 4 1.46957 4 2V16C4 16.5304 4.21071 17.0391 4.58579 17.4142C4.96086 17.7893 5.46957 18 6 18H20C20.5304 18 21.0391 17.7893 21.4142 17.4142C21.7893 17.0391 22 16.5304 22 16V2C22 1.46957 21.7893 0.960859 21.4142 0.585786C21.0391 0.210714 20.5304 0 20 0ZM17.5 13.25C17.5 11.75 14.5 11 13 11C11.5 11 8.5 11.75 8.5 13.25V14H17.5M13 9.25C13.5967 9.25 14.169 9.01295 14.591 8.59099C15.0129 8.16903 15.25 7.59674 15.25 7C15.25 6.40326 15.0129 5.83097 14.591 5.40901C14.169 4.98705 13.5967 4.75 13 4.75C12.4033 4.75 11.831 4.98705 11.409 5.40901C10.9871 5.83097 10.75 6.40326 10.75 7C10.75 7.59674 10.9871 8.16903 11.409 8.59099C11.831 9.01295 12.4033 9.25 13 9.25Z" fill="#E6E6E6"/>
</g>
<defs>
<filter id="filter0_d_293_937" x="0" y="0" width="26" height="26" filterUnits="userSpaceOnUse" color-interpolation-filters="sRGB">
<feFlood flood-opacity="0" result="BackgroundImageFix"/>
<feColorMatrix in="SourceAlpha" type="matrix" values="0 0 0 0 0 0 0 0 0 0 0 0 0 0 0 0 0 0 127 0" result="hardAlpha"/>
<feOffset dy="4"/>
<feGaussianBlur stdDeviation="2"/>
<feComposite in2="hardAlpha" operator="out"/>
<feColorMatrix type="matrix" values="0 0 0 0 0 0 0 0 0 0 0 0 0 0 0 0 0 0 0.25 0"/>
<feBlend mode="normal" in2="BackgroundImageFix" result="effect1_dropShadow_293_937"/>
<feBlend mode="normal" in="SourceGraphic" in2="effect1_dropShadow_293_937" result="shape"/>
</filter>
</defs>
</svg>
