<svg width="39" height="26" viewBox="0 0 39 26" fill="none" xmlns="http://www.w3.org/2000/svg">
<path d="M18.691 4.7231L17.9102 4.09839V4.09839L18.691 4.7231ZM34.3371 25.6569C34.8536 25.8526 35.4309 25.5925 35.6266 25.076L38.815 16.6598C39.0107 16.1433 38.7506 15.566 38.2342 15.3703C37.7177 15.1747 37.1404 15.4347 36.9447 15.9512L34.1105 23.4323L26.6294 20.5981C26.113 20.4025 25.5357 20.6625 25.34 21.179C25.1443 21.6955 25.4044 22.2728 25.9209 22.4684L34.3371 25.6569ZM0.691374 0.722267C-0.000539842 1.44425 -0.000290759 1.44449 4.01067e-06 1.44477C0.000163471 1.44492 0.000504745 1.44525 0.000823609 1.44555C0.00146179 1.44616 0.0022832 1.44695 0.00328679 1.4479C0.005294 1.44982 0.00803025 1.45243 0.0114867 1.45571C0.0183997 1.46227 0.028195 1.47154 0.0408039 1.48341C0.0660201 1.50713 0.102499 1.54121 0.149689 1.58473C0.244055 1.67175 0.381347 1.79656 0.557152 1.95166C0.908572 2.26169 1.41496 2.69367 2.04094 3.18725C3.28865 4.17106 5.03112 5.41519 6.98225 6.42335C8.92065 7.42494 11.1444 8.23548 13.3355 8.26169C15.5791 8.28852 17.7598 7.48777 19.4719 5.34781L18.691 4.7231L17.9102 4.09839C16.6223 5.7081 15.0532 6.28209 13.3594 6.26183C11.6131 6.24094 9.7119 5.58257 7.90035 4.64653C6.10153 3.71707 4.46904 2.55486 3.27928 1.61674C2.68651 1.14935 2.20854 0.741473 1.88027 0.451878C1.71624 0.307164 1.58986 0.192226 1.50552 0.114448C1.46335 0.0755658 1.43172 0.0459922 1.41116 0.0266518C1.40088 0.0169822 1.39337 0.00987317 1.3887 0.00543984C1.38637 0.00322332 1.38474 0.001676 1.38384 0.000812425C1.38339 0.000380649 1.38311 0.000119694 1.38302 3.16543e-05C1.38297 -1.26616e-05 1.38304 5.17374e-05 1.38302 2.91105e-05C1.38313 0.000136357 1.38329 0.000287445 0.691374 0.722267ZM18.691 4.7231L19.4719 5.34781C19.6591 5.11383 19.8224 5.01226 19.9486 4.96651C20.073 4.92143 20.2296 4.90559 20.4464 4.95361C20.9224 5.05907 21.5779 5.44893 22.3918 6.21675C23.9962 7.73026 25.7985 10.3045 27.5125 13.1428C29.2135 15.9599 30.7808 18.9574 31.9251 21.2564C32.4966 22.4045 32.9611 23.3755 33.2824 24.0587C33.4431 24.4003 33.5679 24.6698 33.6523 24.8534C33.6945 24.9452 33.7265 25.0155 33.748 25.0626C33.7587 25.0861 33.7667 25.1039 33.772 25.1156C33.7747 25.1215 33.7767 25.1258 33.7779 25.1286C33.7786 25.1301 33.779 25.1311 33.7793 25.1317C33.7795 25.132 33.7795 25.1322 33.7796 25.1324C33.7797 25.1325 33.7797 25.1325 34.6914 24.7218C35.6032 24.311 35.6031 24.3108 35.6029 24.3105C35.6028 24.3103 35.6027 24.3099 35.6025 24.3094C35.6021 24.3085 35.6015 24.3072 35.6007 24.3055C35.5992 24.3022 35.597 24.2973 35.5941 24.2908C35.5882 24.278 35.5797 24.2591 35.5685 24.2344C35.546 24.185 35.5128 24.1123 35.4695 24.0181C35.3828 23.8296 35.2556 23.5548 35.0923 23.2075C34.7657 22.5132 34.2947 21.5287 33.7156 20.3652C32.5587 18.0409 30.9645 14.9905 29.2245 12.109C27.4975 9.24891 25.5792 6.47403 23.7642 4.76192C22.8685 3.91693 21.8895 3.22483 20.879 3.00096C20.3525 2.88432 19.8029 2.89197 19.267 3.08626C18.7329 3.27987 18.2821 3.63354 17.9102 4.09839L18.691 4.7231Z" fill="white"/>
</svg>
