<svg width="12" height="12" viewBox="0 0 12 12" fill="none" xmlns="http://www.w3.org/2000/svg">
<path d="M4.00074 0H7.55174L3.86574 11.5905C3.83158 11.707 3.76112 11.8095 3.66462 11.8832C3.56812 11.9568 3.45062 11.9978 3.32924 12H0.565242C0.410863 11.9953 0.26466 11.9295 0.15873 11.8171C0.0527993 11.7047 -0.00420136 11.5549 0.000241539 11.4005C0.000513848 11.3352 0.0106274 11.2703 0.0302415 11.208L3.46524 0.4085C3.49953 0.292354 3.56992 0.190148 3.6662 0.116699C3.76249 0.043249 3.87966 0.00237414 4.00074 0Z" fill="#01579B"/>
<path d="M9.16012 8H3.53012C3.45908 8.00196 3.39172 8.03201 3.34279 8.08356C3.29387 8.13511 3.26738 8.20395 3.26912 8.275C3.26873 8.31281 3.27587 8.35032 3.29012 8.38534C3.30437 8.42037 3.32545 8.4522 3.35212 8.479L6.97012 11.837C7.07269 11.9403 7.21204 11.9988 7.35762 11.9995H10.5456L9.16012 8Z" fill="#1976D2"/>
<path d="M8.53571 0.408C8.50136 0.292028 8.43101 0.189989 8.33483 0.116643C8.23866 0.043297 8.12164 0.0024464 8.00071 0H4.04321C4.16425 0.00220322 4.28144 0.0428845 4.37781 0.11615C4.47418 0.189416 4.54472 0.291461 4.57921 0.4075L8.01321 11.207C8.06246 11.355 8.05311 11.5163 7.98708 11.6577C7.92105 11.7991 7.80336 11.9098 7.65821 11.967C7.6001 11.9877 7.53891 11.9986 7.47721 11.999H11.4347C11.5891 11.9944 11.7353 11.9288 11.8414 11.8165C11.9474 11.7042 12.0045 11.5544 12.0002 11.4C11.9999 11.3347 11.9898 11.2698 11.9702 11.2075L8.53621 0.4085L8.53571 0.408Z" fill="#29B6F6"/>
</svg>
