<svg width="20" height="25" viewBox="0 0 20 25" fill="none" xmlns="http://www.w3.org/2000/svg">
<path d="M10.3392 23.4811C10.2161 22.5225 9.87762 21.3646 9.34399 20.117C9.03115 19.3858 10.7724 18.2744 10.3532 17.5408C9.51086 17.4635 9.766 14.5893 8.71377 12.7898C8.31377 12.1057 5.65708 8.94294 5.45134 8.33375C4.87081 7.87733 4.87131 12.0336 4.39465 11.8864C4.27345 12.9939 3.80506 14.2751 4.94424 16.2234C5.68235 17.4857 5.65628 19.0817 6.46237 19.8805C7.31453 20.7255 10.3392 23.4811 10.3392 23.4811Z" fill="url(#paint0_linear_305_1008)"/>
<path d="M13.6167 7C13.2282 7.88493 12.9216 9.05171 12.736 10.3958C12.6272 11.1837 10.5623 11.2388 10.5435 12.0835C11.2256 12.5839 9.52572 14.9156 9.50011 17C9.49038 17.7924 10.1373 21.8719 9.99964 22.5C10.2619 23.1903 12.4034 19.6282 12.736 20C13.4106 19.1133 14.4723 18.2567 14.5 16C14.5179 14.5379 15.3628 13.1835 15.0836 12.0835C14.7888 10.9202 13.6167 7 13.6167 7Z" fill="url(#paint1_linear_305_1008)"/>
<path d="M15.249 16.155C15.8492 13.7438 15.7464 11.2111 14.9527 8.85649C14.1589 6.50187 12.7075 4.42379 10.77 2.86802C12.5386 1.8502 14.5444 1.31692 16.585 1.32202C17.359 1.32202 18.13 1.39702 18.889 1.54802L19.209 0.266024C18.3453 0.088563 17.4658 -0.000562611 16.584 2.37089e-05C14.1111 -0.00471103 11.6887 0.699801 9.604 2.03002C7.51962 0.699984 5.09758 -0.00451971 2.625 2.37089e-05C1.743 2.37089e-05 0.864 0.0890237 0 0.266024L0.319 1.54802C1.07858 1.39848 1.85084 1.3228 2.625 1.32202C4.66583 1.31785 6.67188 1.85031 8.442 2.86602C6.85874 4.13729 5.59502 5.7615 4.75195 7.60867C3.90888 9.45585 3.50987 11.4747 3.58684 13.5037C3.66381 15.5328 4.21464 17.5156 5.19523 19.2936C6.17583 21.0716 7.55898 22.5954 9.234 23.743L9.609 24L9.982 23.743C12.606 21.942 14.482 19.243 15.252 16.155H15.249ZM8.944 21.855C7.21945 20.3652 5.96795 18.4039 5.34345 16.2122C4.71895 14.0205 4.74869 11.694 5.429 9.51902C6.09529 10.6281 6.92342 11.6315 7.886 12.496C8.21974 12.7967 8.48642 13.1643 8.66871 13.5749C8.85099 13.9855 8.94479 14.4298 8.944 14.879V21.855ZM9.605 12.198C8.71875 11.5407 7.92993 10.7613 7.262 9.88302C6.8341 9.32072 6.6024 8.63362 6.6024 7.92702C6.6024 7.22043 6.8341 6.53333 7.262 5.97102C7.92985 5.08609 8.72008 4.30056 9.609 3.63802C10.509 4.30902 11.306 5.10602 11.979 6.00402C12.3925 6.55721 12.616 7.22935 12.616 7.92002C12.616 8.6107 12.3925 9.28284 11.979 9.83602C11.304 10.7322 10.5046 11.5276 9.605 12.198ZM10.264 21.855V14.879C10.2635 14.4297 10.3576 13.9852 10.5402 13.5746C10.7228 13.1641 10.9899 12.7965 11.324 12.496C12.2859 11.6313 13.1133 10.628 13.779 9.51902C14.4593 11.694 14.4891 14.0205 13.8646 16.2122C13.2401 18.4039 11.9886 20.3652 10.264 21.855Z" fill="url(#paint2_linear_305_1008)"/>
<defs>
<linearGradient id="paint0_linear_305_1008" x1="3.41687" y1="9.45324" x2="15" y2="31" gradientUnits="userSpaceOnUse">
<stop stop-color="#30A904"/>
<stop offset="1" stop-color="#134302"/>
</linearGradient>
<linearGradient id="paint1_linear_305_1008" x1="14.5" y1="18.5" x2="-2.54112" y2="-21.2659" gradientUnits="userSpaceOnUse">
<stop stop-color="#206C04"/>
<stop offset="1" stop-color="#3ED208"/>
</linearGradient>
<linearGradient id="paint2_linear_305_1008" x1="3.5" y1="3.5" x2="9.6045" y2="24" gradientUnits="userSpaceOnUse">
<stop stop-color="#244F99"/>
<stop offset="1" stop-color="#0C1A33"/>
</linearGradient>
</defs>
</svg>
