<svg width="22" height="21" viewBox="0 0 22 21" fill="none" xmlns="http://www.w3.org/2000/svg">
<path d="M19 7.5V5H1V18H8M13.5 5V1H6.5V5" stroke="#E6E6E6" stroke-width="2" stroke-linecap="square"/>
<path d="M16 14.252V15.5L17 16.5M16 20C14.8065 20 13.6619 19.5259 12.818 18.682C11.9741 17.8381 11.5 16.6935 11.5 15.5C11.5 14.3065 11.9741 13.1619 12.818 12.318C13.6619 11.4741 14.8065 11 16 11C17.1935 11 18.3381 11.4741 19.182 12.318C20.0259 13.1619 20.5 14.3065 20.5 15.5C20.5 16.6935 20.0259 17.8381 19.182 18.682C18.3381 19.5259 17.1935 20 16 20Z" stroke="#E6E6E6" stroke-width="2" stroke-linecap="square"/>
</svg>
