<svg width="14" height="18" viewBox="0 0 14 18" fill="none" xmlns="http://www.w3.org/2000/svg">
<path d="M4.38489 17.0786C5.12071 17.3747 5.91887 17.5504 6.75701 17.5797C7.85168 17.6188 8.94016 17.3994 9.93423 16.9393C8.77787 16.485 7.73066 15.8207 6.83685 14.9946C6.25749 15.9223 5.40054 16.6549 4.38489 17.0786Z" fill="#FF9100"/>
<path d="M6.83666 14.995C4.79644 13.108 3.55875 10.3769 3.66337 7.3815C3.66676 7.28415 3.6719 7.18697 3.67791 7.08979C2.77182 6.85487 1.81959 6.86483 0.918609 7.11867C0.373978 8.07269 0.0453064 9.16731 0.00434552 10.3398C-0.10131 13.3658 1.7299 16.0098 4.38475 17.0789C5.4004 16.6553 6.25724 15.9234 6.83666 14.995Z" fill="#FFC400"/>
<path d="M6.83679 14.995C7.31114 14.236 7.59874 13.346 7.63221 12.3871C7.72026 9.86495 6.02473 7.69529 3.67799 7.08984C3.67197 7.18702 3.66689 7.28426 3.6635 7.38155C3.55888 10.377 4.79656 13.1081 6.83679 14.995Z" fill="#FF9100"/>
<path d="M7.36975 0C6.03319 1.07078 4.97784 2.48259 4.33931 4.10899C3.96518 5.06237 3.74169 6.06816 3.67688 7.09027C6.02362 7.69566 7.71921 9.86538 7.6311 12.3876C7.59764 13.3463 7.30916 14.2355 6.83568 14.9954C7.73813 15.8307 8.78856 16.4903 9.93301 16.9401C12.254 15.8673 13.9007 13.5586 13.9961 10.828C14.0579 9.05885 13.3781 7.48205 12.4176 6.15113C11.4033 4.74347 7.3697 0 7.3697 0" fill="#DD2C00"/>
</svg>
