<svg width="16" height="19" viewBox="0 0 16 19" fill="none" xmlns="http://www.w3.org/2000/svg">
<path d="M2.79895 2.80051C3.44897 2.15042 4.22068 1.63474 5.07001 1.28291C5.91933 0.931084 6.82964 0.75 7.74895 0.75C8.66827 0.75 9.57858 0.931084 10.4279 1.28291C11.2772 1.63474 12.0489 2.15042 12.699 2.80051C14.0119 4.11409 14.7494 5.89529 14.7494 7.75251C14.7494 9.60972 14.0119 11.3909 12.699 12.7045L11.571 13.8185L9.13495 16.1885C8.78514 16.5271 8.23631 18.2284 7.74996 18.25C7.2636 18.2716 6.87335 16.6118 6.49496 16.3055L6.36296 16.1885L4.31995 14.2035L2.79995 12.7035C1.48735 11.39 0.75002 9.60897 0.75002 7.752C0.75002 5.89504 1.48635 4.11405 2.79895 2.80051ZM11.995 3.50551C11.4377 2.94765 10.776 2.50509 10.0476 2.20315C9.31921 1.9012 8.53845 1.74578 7.74996 1.74578C6.96146 1.74578 6.1807 1.9012 5.45231 2.20315C4.72392 2.50509 4.06219 2.94765 3.50495 3.50551C2.41054 4.60138 1.78143 6.07744 1.74882 7.62587C1.71622 9.1743 2.28264 10.6755 3.32995 11.8165L3.50495 11.9995L4.07495 12.5665L7.05695 15.4715L7.14995 15.5515C7.32305 15.6813 7.53302 16.75 7.74939 16.75C7.96576 16.75 8.17686 15.6813 8.34995 15.5515L8.44296 15.4715L10.673 13.3035L11.995 11.9995L12.171 11.8165C13.2178 10.6755 13.7839 9.17436 13.7511 7.62617C13.7183 6.07799 13.0892 4.6012 11.995 3.50551Z" stroke="white" stroke-width="1.5"/>
</svg>
