<svg width="14" height="13" viewBox="0 0 14 13" fill="none" xmlns="http://www.w3.org/2000/svg">
<path d="M7 4.24683C10.722 4.24683 13 5.54183 13 6.24683C13 6.95183 10.722 8.24683 7 8.24683C3.278 8.24683 1 6.95183 1 6.24683C1 5.54183 3.278 4.24683 7 4.24683ZM7 3.24683C3.134 3.24683 0 4.58983 0 6.24683C0 7.90383 3.134 9.24683 7 9.24683C10.866 9.24683 14 7.90383 14 6.24683C14 4.58983 10.866 3.24683 7 3.24683Z" fill="#00BCD4"/>
<path d="M7 5.24683C6.80222 5.24683 6.60888 5.30548 6.44443 5.41536C6.27998 5.52524 6.15181 5.68142 6.07612 5.86414C6.00043 6.04687 5.98063 6.24794 6.01922 6.44192C6.0578 6.6359 6.15304 6.81408 6.29289 6.95393C6.43275 7.09379 6.61093 7.18903 6.80491 7.22761C6.99889 7.2662 7.19996 7.24639 7.38268 7.17071C7.56541 7.09502 7.72159 6.96685 7.83147 6.8024C7.94135 6.63795 8 6.44461 8 6.24683C8 5.98161 7.89464 5.72726 7.70711 5.53972C7.51957 5.35218 7.26522 5.24683 7 5.24683Z" fill="#00BCD4"/>
<path d="M4.22882 1.00024C5.23732 1.00024 7.19732 2.58874 8.73182 5.24674C10.5928 8.47024 10.6103 11.0902 9.99982 11.4427C9.9294 11.4793 9.85057 11.4965 9.77132 11.4927C8.76282 11.4927 6.80232 9.90474 5.26782 7.24674C3.40682 4.02324 3.38932 1.40324 3.99982 1.05074C4.0704 1.01414 4.14941 0.996389 4.22882 1.00024ZM4.22832 0.000744104C3.9735 -0.00386673 3.72205 0.0594705 3.49982 0.184244C2.06482 1.01274 2.46882 4.39874 4.40182 7.74674C6.04382 10.5917 8.26182 12.4932 9.77182 12.4932C10.0266 12.4975 10.2778 12.4338 10.4998 12.3087C11.9348 11.4807 11.5308 8.09474 9.59782 4.74674C7.95582 1.90174 5.73782 0.000244141 4.22782 0.000244141L4.22832 0.000744104Z" fill="#00BCD4"/>
<path d="M9.77145 1.0002C9.8507 0.996439 9.92953 1.01369 9.99995 1.0502C10.6105 1.4032 10.593 4.0232 8.73196 7.2467C7.19696 9.9047 5.23695 11.4932 4.22845 11.4932C4.14921 11.497 4.07038 11.4797 3.99995 11.4432C3.38945 11.0897 3.40695 8.4697 5.26795 5.2467C6.80295 2.5887 8.76295 1.0002 9.77145 1.0002ZM9.77145 0.000204743C8.26145 0.000204743 6.04395 1.9022 4.40145 4.7467C2.46945 8.0947 2.06495 11.4807 3.49995 12.3087C3.72209 12.4338 3.97354 12.4975 4.22845 12.4932C5.73845 12.4932 7.95595 10.5912 9.59845 7.7467C11.5305 4.3987 11.935 1.0127 10.5 0.184705C10.2778 0.0595826 10.0264 -0.00410126 9.77145 0.000204743Z" fill="#00BCD4"/>
</svg>
